<svg width="240" height="240" viewBox="0 0 240 240" fill="none" xmlns="http://www.w3.org/2000/svg">
<rect width="240" height="240" fill="white"/>
<path d="M30.4844 134.188C28.8594 134.188 26.3281 134.141 22.8906 134.047C21.1719 133.984 19.6094 133.938 18.2031 133.906C16.7969 133.875 15.5625 133.875 14.5 133.906L8.82812 134.047C8.73438 133.953 8.6875 133.703 8.6875 133.297C8.6875 132.891 8.73438 132.688 8.82812 132.688C9.14062 132.688 9.51562 132.641 9.95312 132.547C10.4219 132.453 10.8594 132.344 11.2656 132.219C11.7031 132.062 11.9688 131.891 12.0625 131.703C12.2812 131.359 12.3906 129.891 12.3906 127.297V109.578C12.3906 107.516 12.2812 106.094 12.0625 105.312C12 105.125 11.7656 104.969 11.3594 104.844C10.9531 104.688 10.5156 104.562 10.0469 104.469C9.57812 104.375 9.20312 104.328 8.92188 104.328C8.79688 104.328 8.73438 104.125 8.73438 103.719C8.73438 103.344 8.79688 103.094 8.92188 102.969C9.20312 102.969 9.67188 103 10.3281 103.062C11.0156 103.094 11.75 103.141 12.5312 103.203C13.3125 103.234 13.9844 103.25 14.5469 103.25C15.5469 103.25 16.5469 103.219 17.5469 103.156C18.5469 103.062 19.3594 103 19.9844 102.969C20.0469 103.219 20.0781 103.453 20.0781 103.672C20.0781 104.109 20.0156 104.328 19.8906 104.328C19.7031 104.328 19.375 104.391 18.9062 104.516C18.4375 104.609 18 104.734 17.5938 104.891C17.1875 105.016 16.9531 105.156 16.8906 105.312C16.6094 106.375 16.4688 107.828 16.4688 109.672V127.344C16.4688 129 16.6094 130.375 16.8906 131.469C16.9844 131.781 18.0469 131.938 20.0781 131.938H22.3281C25.2031 131.938 27.1719 131.672 28.2344 131.141C28.7031 130.891 29.2188 130.344 29.7812 129.5C30.375 128.625 30.8438 127.594 31.1875 126.406C31.25 126.219 31.4688 126.125 31.8438 126.125C32.4375 126.125 32.8281 126.219 33.0156 126.406C32.9219 126.656 32.7656 127.047 32.5469 127.578C32.3594 128.078 32.1719 128.594 31.9844 129.125C31.7969 129.656 31.6406 130.109 31.5156 130.484C31.3281 131.047 31.125 131.688 30.9062 132.406C30.6875 133.125 30.5469 133.719 30.4844 134.188ZM33.3438 134.141C33.2188 134.016 33.1562 133.781 33.1562 133.438C33.1562 133 33.2188 132.781 33.3438 132.781C33.7188 132.781 34.2031 132.703 34.7969 132.547C35.3906 132.391 35.7969 132.172 36.0156 131.891C36.3594 131.453 36.7031 130.875 37.0469 130.156C37.4219 129.438 37.8125 128.547 38.2188 127.484L46.375 106.531C46.5625 106.062 46.6719 105.734 46.7031 105.547C46.7656 105.359 46.8125 105.203 46.8438 105.078C46.9062 104.922 47.0156 104.672 47.1719 104.328C47.3906 103.891 47.6094 103.547 47.8281 103.297C48.0469 103.047 48.4062 102.922 48.9062 102.922L49.3281 103.062L58.7031 127.812C58.9844 128.531 59.2344 129.172 59.4531 129.734C59.7031 130.297 59.9062 130.781 60.0625 131.188C60.1875 131.5 60.4531 131.781 60.8594 132.031C61.2969 132.25 61.7344 132.438 62.1719 132.594C62.6406 132.719 63 132.781 63.25 132.781C63.375 132.781 63.4375 133.078 63.4375 133.672C63.4375 133.734 63.4219 133.812 63.3906 133.906C63.3906 133.969 63.375 134.047 63.3438 134.141C61.7812 134.078 60.5625 134.031 59.6875 134C58.8438 133.938 58.3438 133.906 58.1875 133.906L52.75 134.141C52.625 134.016 52.5625 133.766 52.5625 133.391C52.5938 132.984 52.6719 132.781 52.7969 132.781C53.1719 132.781 53.6406 132.703 54.2031 132.547C54.7656 132.391 55.0938 132.188 55.1875 131.938C55.2188 131.812 55.2344 131.688 55.2344 131.562C55.2656 131.438 55.2812 131.312 55.2812 131.188C55.2812 130.781 55.2344 130.312 55.1406 129.781C55.0469 129.219 54.9375 128.781 54.8125 128.469L52.7031 122.656C52.6094 122.531 52.5156 122.469 52.4219 122.469C51.2031 122.375 50.0156 122.328 48.8594 122.328C48.0469 122.328 47.1406 122.359 46.1406 122.422C45.1719 122.453 44.0938 122.5 42.9062 122.562L42.6719 122.703L40.6562 127.859C40.3438 128.641 40.125 129.297 40 129.828C39.9062 130.359 39.8594 130.781 39.8594 131.094C39.8594 131.531 39.9844 131.844 40.2344 132.031C40.5156 132.25 40.9688 132.438 41.5938 132.594C42.2188 132.719 42.6719 132.781 42.9531 132.781C43.0469 132.781 43.0938 132.969 43.0938 133.344C43.125 133.719 43.1094 133.984 43.0469 134.141L38.2188 133.906C37.3438 133.844 36.4844 133.859 35.6406 133.953C34.8281 134.016 34.0625 134.078 33.3438 134.141ZM47.2188 120.078C48.625 120.078 50.0469 120.031 51.4844 119.938L51.625 119.703L47.8281 109.344L43.7969 119.797C43.7969 119.922 43.8281 119.984 43.8906 119.984C44.7031 120.016 45.375 120.047 45.9062 120.078C46.4688 120.078 46.9062 120.078 47.2188 120.078ZM79.5156 134.375C79.3281 134.375 79.1875 134.297 79.0938 134.141L66.9062 109.906C66.4688 109 66.0156 108.172 65.5469 107.422C65.0781 106.672 64.625 106 64.1875 105.406C63.9375 105.094 63.5156 104.844 62.9219 104.656C62.3281 104.438 61.8438 104.328 61.4688 104.328C61.3438 104.328 61.2812 104.125 61.2812 103.719C61.2812 103.344 61.3438 103.094 61.4688 102.969L67.375 103.203L72.2969 102.969C72.3594 103.094 72.375 103.359 72.3438 103.766C72.3438 104.141 72.2969 104.328 72.2031 104.328C71.7031 104.328 71.1875 104.453 70.6562 104.703C70.125 104.922 69.8594 105.25 69.8594 105.688C69.8594 106.625 70.2188 107.781 70.9375 109.156L80.6406 128.375C80.7344 128.531 80.8594 128.578 81.0156 128.516C81.1719 128.422 81.2812 128.297 81.3438 128.141L85.2344 120.031L80.3125 109.906C79.875 109 79.4219 108.172 78.9531 107.422C78.4844 106.672 78.0312 106 77.5938 105.406C77.3438 105.094 76.9219 104.844 76.3281 104.656C75.7344 104.438 75.25 104.328 74.875 104.328C74.75 104.328 74.6875 104.094 74.6875 103.625C74.6875 103.312 74.75 103.094 74.875 102.969L80.7812 103.203L85.6562 102.969C85.7188 103.094 85.7344 103.359 85.7031 103.766C85.7031 104.141 85.6562 104.328 85.5625 104.328C85.0625 104.328 84.5469 104.438 84.0156 104.656C83.5156 104.875 83.2656 105.219 83.2656 105.688C83.2656 106.094 83.3438 106.594 83.5 107.188C83.6875 107.75 83.9688 108.406 84.3438 109.156L87.4375 115.484L90.7188 108.594C91.1562 107.688 91.375 106.781 91.375 105.875C91.375 105.344 91.0312 104.953 90.3438 104.703C89.6875 104.453 89.1094 104.328 88.6094 104.328C88.4844 104.328 88.4219 104.125 88.4219 103.719C88.4219 103.344 88.4844 103.094 88.6094 102.969C89.8594 103.031 90.875 103.094 91.6562 103.156C92.4688 103.219 93.0312 103.234 93.3438 103.203L98.2188 102.969C98.2812 103.094 98.2969 103.359 98.2656 103.766C98.2656 104.141 98.2188 104.328 98.125 104.328C97.9375 104.328 97.625 104.391 97.1875 104.516C96.75 104.609 96.3125 104.766 95.875 104.984C95.4375 105.172 95.1094 105.391 94.8906 105.641C94.6094 105.984 94.2344 106.562 93.7656 107.375C93.3281 108.156 92.7969 109.188 92.1719 110.469L88.5625 117.875L93.6719 128.375C93.8281 128.656 94.0156 128.578 94.2344 128.141L102.625 108.875C102.906 108.25 103.109 107.688 103.234 107.188C103.359 106.688 103.422 106.266 103.422 105.922C103.422 105.391 103.094 105 102.438 104.75C101.812 104.469 101.25 104.328 100.75 104.328C100.625 104.328 100.562 104.125 100.562 103.719C100.562 103.344 100.625 103.094 100.75 102.969C102 103.031 103.016 103.094 103.797 103.156C104.609 103.188 105.188 103.203 105.531 103.203C106.438 103.203 107.281 103.172 108.062 103.109C108.844 103.047 109.547 103 110.172 102.969C110.234 103.219 110.266 103.453 110.266 103.672C110.266 104.109 110.203 104.328 110.078 104.328C109.766 104.328 109.266 104.453 108.578 104.703C107.891 104.922 107.375 105.234 107.031 105.641C106.156 106.703 105.25 108.281 104.312 110.375L94.375 132.875C93.9375 133.875 93.3281 134.375 92.5469 134.375C92.3594 134.375 92.2188 134.297 92.125 134.141L86.4062 122.422L81.3438 132.875C80.875 133.875 80.2656 134.375 79.5156 134.375ZM120.672 134.141C120.547 134.016 120.484 133.797 120.484 133.484C120.484 133.078 120.547 132.875 120.672 132.875C120.922 132.875 121.266 132.828 121.703 132.734C122.172 132.641 122.594 132.516 122.969 132.359C123.375 132.172 123.609 132 123.672 131.844C123.797 131.344 123.891 130.719 123.953 129.969C124.016 129.219 124.047 128.344 124.047 127.344V121.484C124.047 121.047 123.719 120.172 123.062 118.859C122.719 118.234 122.062 117.031 121.094 115.25C120.125 113.469 118.828 111.141 117.203 108.266C116.703 107.328 116.312 106.688 116.031 106.344C115.781 105.969 115.406 105.609 114.906 105.266C114.562 105.016 114.047 104.781 113.359 104.562C112.672 104.344 112.172 104.234 111.859 104.234C111.734 104.234 111.672 104.062 111.672 103.719C111.672 103.344 111.734 103.094 111.859 102.969L114.391 103.109C114.984 103.141 115.531 103.172 116.031 103.203C116.562 103.234 117.047 103.25 117.484 103.25C117.859 103.25 119.922 103.156 123.672 102.969C123.734 103.094 123.75 103.344 123.719 103.719C123.719 104.062 123.672 104.234 123.578 104.234C123.047 104.234 122.438 104.375 121.75 104.656C121.094 104.906 120.766 105.297 120.766 105.828C120.766 106.141 120.938 106.609 121.281 107.234L126.531 117.172C126.719 117.328 126.875 117.297 127 117.078C131.25 110.672 133.375 106.906 133.375 105.781C133.375 105.438 133.062 105.094 132.438 104.75C131.812 104.406 131.047 104.234 130.141 104.234C130.016 104.234 129.953 104.047 129.953 103.672C129.953 103.328 130.016 103.094 130.141 102.969L135.672 103.25C136.172 103.281 136.672 103.281 137.172 103.25C137.672 103.188 138.172 103.141 138.672 103.109C139.703 103.016 140.359 102.969 140.641 102.969C140.703 103.219 140.734 103.453 140.734 103.672C140.734 104.047 140.672 104.234 140.547 104.234C140.297 104.234 139.906 104.297 139.375 104.422C138.844 104.547 138.312 104.719 137.781 104.938C137.281 105.156 136.922 105.406 136.703 105.688C136.234 106.438 135.641 107.391 134.922 108.547C134.203 109.672 133.453 110.891 132.672 112.203C131.891 113.484 131.156 114.719 130.469 115.906C129.781 117.062 129.219 118.047 128.781 118.859C128.344 119.672 128.125 120.172 128.125 120.359V127.484C128.125 128.453 128.156 129.297 128.219 130.016C128.281 130.734 128.375 131.344 128.5 131.844C128.562 131.969 128.781 132.125 129.156 132.312C129.562 132.469 129.984 132.609 130.422 132.734C130.859 132.828 131.172 132.875 131.359 132.875C131.484 132.875 131.547 133.078 131.547 133.484C131.547 133.672 131.516 133.891 131.453 134.141C129.891 134.078 128.672 134.031 127.797 134C126.922 133.938 126.391 133.906 126.203 133.906L120.672 134.141ZM164.594 134.188C163.812 134.188 162.781 134.172 161.5 134.141C160.25 134.141 158.766 134.125 157.047 134.094C155.328 134.062 153.766 134.031 152.359 134C150.953 134 149.703 134 148.609 134L142.938 134.141C142.844 134.047 142.797 133.797 142.797 133.391C142.797 132.984 142.844 132.781 142.938 132.781C143.219 132.781 143.594 132.734 144.062 132.641C144.531 132.516 144.969 132.375 145.375 132.219C145.812 132.062 146.078 131.891 146.172 131.703C146.391 131.359 146.5 129.891 146.5 127.297V109.578C146.5 108.672 146.469 107.875 146.406 107.188C146.375 106.5 146.297 105.953 146.172 105.547C146.109 105.359 145.859 105.188 145.422 105.031C145.016 104.875 144.562 104.75 144.062 104.656C143.594 104.562 143.219 104.516 142.938 104.516C142.812 104.516 142.75 104.328 142.75 103.953C142.75 103.547 142.812 103.281 142.938 103.156C143.75 103.188 144.609 103.219 145.516 103.25C146.453 103.25 147.453 103.25 148.516 103.25C149.234 103.25 150.203 103.234 151.422 103.203C152.641 103.172 154.109 103.125 155.828 103.062C157.578 103 159.094 102.953 160.375 102.922C161.688 102.891 162.781 102.875 163.656 102.875C163.719 103.312 163.812 103.844 163.938 104.469C164.062 105.062 164.219 105.719 164.406 106.438C164.562 107.188 164.688 107.797 164.781 108.266C164.906 108.734 164.984 109.062 165.016 109.25C164.859 109.406 164.578 109.484 164.172 109.484C163.766 109.484 163.547 109.375 163.516 109.156C163.047 107.438 162.391 106.344 161.547 105.875C160.703 105.375 159.547 105.125 158.078 105.125H154.938C152.219 105.125 150.844 105.328 150.812 105.734C150.75 106.109 150.688 106.625 150.625 107.281C150.594 107.938 150.578 108.734 150.578 109.672V117.172C150.578 117.359 151.25 117.453 152.594 117.453H155.078C156.141 117.453 156.859 117.453 157.234 117.453C157.609 117.422 157.875 117.375 158.031 117.312C158.219 117.25 158.562 117.156 159.062 117.031C159.375 116.969 159.609 116.609 159.766 115.953C159.953 115.266 160.109 114.703 160.234 114.266C160.266 114.047 160.5 113.938 160.938 113.938C161.312 113.938 161.578 114.016 161.734 114.172V123.031C161.609 123.156 161.359 123.219 160.984 123.219C160.578 123.219 160.328 123.094 160.234 122.844C160.109 122.406 160 122.031 159.906 121.719C159.812 121.406 159.734 121.141 159.672 120.922C159.516 120.484 159.391 120.234 159.297 120.172C159.234 120.109 159.109 120.016 158.922 119.891C158.484 119.641 156.828 119.516 153.953 119.516C151.703 119.516 150.578 119.656 150.578 119.938V127.203C150.578 129.234 150.719 130.656 151 131.469C151.094 131.781 152.156 131.938 154.188 131.938H156.438C159.312 131.938 161.281 131.672 162.344 131.141C162.812 130.891 163.328 130.344 163.891 129.5C164.484 128.625 164.953 127.594 165.297 126.406C165.359 126.219 165.578 126.125 165.953 126.125C166.547 126.125 166.938 126.219 167.125 126.406C167.031 126.656 166.875 127.047 166.656 127.578C166.469 128.078 166.281 128.594 166.094 129.125C165.906 129.656 165.75 130.109 165.625 130.484C165.438 131.047 165.234 131.688 165.016 132.406C164.797 133.125 164.656 133.719 164.594 134.188ZM198.156 134.234C193.812 134.234 190.016 131.984 186.766 127.484C186.516 127.141 186.188 126.672 185.781 126.078C185.406 125.484 184.703 124.438 183.672 122.938C183.172 122.219 182.719 121.625 182.312 121.156C181.938 120.656 181.484 120.281 180.953 120.031C180.453 119.781 179.766 119.656 178.891 119.656C178.547 119.656 178.266 119.703 178.047 119.797C177.859 119.891 177.766 120.109 177.766 120.453V127.344C177.766 129.406 177.891 130.766 178.141 131.422C178.266 131.672 178.562 131.906 179.031 132.125C179.531 132.344 180.062 132.516 180.625 132.641C181.188 132.734 181.594 132.781 181.844 132.781C181.969 132.781 182.031 133 182.031 133.438C182.031 133.656 182 133.891 181.938 134.141C180.375 134.078 179.078 134.016 178.047 133.953C177.047 133.891 176.312 133.875 175.844 133.906L170.125 134.141C170.031 134.047 169.984 133.766 169.984 133.297C169.984 132.891 170.031 132.688 170.125 132.688C170.438 132.688 170.812 132.641 171.25 132.547C171.719 132.453 172.156 132.344 172.562 132.219C173 132.062 173.266 131.891 173.359 131.703C173.578 131.359 173.688 129.891 173.688 127.297V109.578C173.688 108.672 173.656 107.875 173.594 107.188C173.562 106.5 173.484 105.953 173.359 105.547C173.297 105.359 173.047 105.188 172.609 105.031C172.203 104.875 171.75 104.75 171.25 104.656C170.781 104.562 170.406 104.516 170.125 104.516C170 104.516 169.938 104.328 169.938 103.953C169.938 103.547 170 103.281 170.125 103.156L175.75 103.25C176.656 103.281 177.766 103.266 179.078 103.203C180.391 103.109 181.484 103.062 182.359 103.062C184.047 103.062 185.656 103.391 187.188 104.047C188.75 104.703 190.016 105.672 190.984 106.953C191.984 108.234 192.484 109.797 192.484 111.641C192.484 112.953 191.984 114.328 190.984 115.766C190.016 117.203 188.688 118.312 187 119.094C186.688 119.219 186.594 119.375 186.719 119.562C188.25 122.812 190.047 125.562 192.109 127.812C195.109 131.094 197.547 132.734 199.422 132.734C199.516 132.922 199.562 133.141 199.562 133.391C199.562 133.672 199.516 133.906 199.422 134.094C199.109 134.188 198.688 134.234 198.156 134.234ZM181.844 117.641H183.016C183.766 117.641 184.531 117.391 185.312 116.891C186.125 116.391 186.797 115.688 187.328 114.781C187.891 113.875 188.172 112.828 188.172 111.641C188.172 107.297 185.984 105.125 181.609 105.125C180.172 105.125 179.078 105.234 178.328 105.453C178.047 105.516 177.875 106.031 177.812 107C177.781 107.938 177.766 109.141 177.766 110.609V116.281C177.766 117.188 179.125 117.641 181.844 117.641ZM200.875 111.266C200.438 111.266 200.125 111 199.938 110.469C201.062 109.812 201.891 109.062 202.422 108.219C202.984 107.344 203.266 106.672 203.266 106.203C203.266 105.828 203.109 105.453 202.797 105.078C202.484 104.703 202.156 104.328 201.812 103.953C201.5 103.578 201.344 103.203 201.344 102.828C201.344 102.266 201.656 101.797 202.281 101.422C202.906 101.016 203.609 100.812 204.391 100.812C204.703 100.812 205.016 100.859 205.328 100.953C205.766 101.578 205.984 102.672 205.984 104.234C205.984 105.047 205.812 105.859 205.469 106.672C205.156 107.453 204.766 108.109 204.297 108.641C203.641 109.359 202.969 109.984 202.281 110.516C201.594 111.016 201.125 111.266 200.875 111.266ZM218.125 134.469C217.375 134.469 216.578 134.406 215.734 134.281C214.891 134.188 214.188 134.078 213.625 133.953C212.469 133.734 211.625 133.562 211.094 133.438C210.594 133.281 210.125 133.172 209.688 133.109C209.281 131.172 208.984 129.594 208.797 128.375C208.609 127.125 208.516 126.219 208.516 125.656C208.516 125.469 208.766 125.375 209.266 125.375C209.828 125.375 210.219 125.516 210.438 125.797C211.531 130.297 214.125 132.547 218.219 132.547C219.781 132.547 221.109 132.078 222.203 131.141C223.297 130.203 223.844 128.875 223.844 127.156C223.844 126.594 223.719 125.906 223.469 125.094C223.25 124.281 222.734 123.578 221.922 122.984C221.297 122.516 220.781 122.172 220.375 121.953C219.969 121.703 219.562 121.484 219.156 121.297C218.75 121.078 218.234 120.781 217.609 120.406L215.734 119.281C214.766 118.688 213.797 118.016 212.828 117.266C211.859 116.484 211.047 115.578 210.391 114.547C209.766 113.516 209.453 112.344 209.453 111.031C209.453 109.375 209.875 107.938 210.719 106.719C211.594 105.469 212.719 104.5 214.094 103.812C215.5 103.125 217.016 102.781 218.641 102.781C219.328 102.781 219.969 102.828 220.562 102.922C221.188 102.984 221.703 103.062 222.109 103.156C223.047 103.375 223.703 103.547 224.078 103.672C224.484 103.797 225.031 103.938 225.719 104.094C226.094 105.719 226.281 107.953 226.281 110.797C226.281 111.016 226.125 111.125 225.812 111.125C225.031 111.125 224.625 110.969 224.594 110.656C224.438 109.719 224.094 108.797 223.562 107.891C223.031 106.984 222.312 106.234 221.406 105.641C220.5 105.016 219.422 104.703 218.172 104.703C216.891 104.703 215.891 104.953 215.172 105.453C214.453 105.922 213.938 106.531 213.625 107.281C213.344 108 213.203 108.766 213.203 109.578C213.203 110.359 213.391 111.141 213.766 111.922C214.141 112.703 214.688 113.359 215.406 113.891C216.375 114.609 217.344 115.281 218.312 115.906C219.312 116.531 220.344 117.172 221.406 117.828C222.406 118.453 223.406 119.156 224.406 119.938C225.406 120.688 226.234 121.547 226.891 122.516C227.578 123.484 227.922 124.609 227.922 125.891C227.922 127.547 227.469 129.031 226.562 130.344C225.656 131.625 224.453 132.641 222.953 133.391C221.484 134.109 219.875 134.469 218.125 134.469Z" fill="black"/>
</svg>
