<svg width="12" height="12" viewBox="0 0 12 12" fill="none" xmlns="http://www.w3.org/2000/svg">
<path d="M6 0C2.68661 0 0 2.68661 0 6C0 9.31339 2.68661 12 6 12C9.31339 12 12 9.31339 12 6C12 2.68661 9.31339 0 6 0ZM6 10.9821C3.24911 10.9821 1.01786 8.75089 1.01786 6C1.01786 3.24911 3.24911 1.01786 6 1.01786C8.75089 1.01786 10.9821 3.24911 10.9821 6C10.9821 8.75089 8.75089 10.9821 6 10.9821ZM7.17188 6.49955C7.63795 6.32812 8.22188 5.8433 8.22188 4.90313C8.22188 3.94955 7.6125 3.14732 6.29063 3.14732H4.20536C4.14643 3.14732 4.09821 3.19554 4.09821 3.25446V8.74554C4.09821 8.80446 4.14643 8.85268 4.20536 8.85268H4.93527C4.9942 8.85268 5.04241 8.80446 5.04241 8.74554V6.65893H6.23036L7.22946 8.79107C7.24687 8.82857 7.28438 8.85268 7.32589 8.85268H8.15625C8.17445 8.85284 8.19238 8.8483 8.20831 8.8395C8.22424 8.8307 8.23763 8.81795 8.24719 8.80246C8.25675 8.78698 8.26215 8.76929 8.26288 8.75111C8.26361 8.73292 8.25963 8.71486 8.25134 8.69866L7.17188 6.49955ZM6.13393 5.90625H5.04241V3.92411H6.15938C6.80223 3.92411 7.24286 4.26295 7.24286 4.93527C7.24286 5.56339 6.84375 5.90625 6.13393 5.90625Z" fill="black"/>
</svg>
